<?xml version="1.0" standalone="no"?>
<!DOCTYPE svg PUBLIC "-//W3C//DTD SVG 20010904//EN"
 "http://www.w3.org/TR/2001/REC-SVG-20010904/DTD/svg10.dtd">
<svg version="1.0" xmlns="http://www.w3.org/2000/svg"
 width="64.000000pt" height="64.000000pt" viewBox="0 0 64.000000 64.000000"
 preserveAspectRatio="xMidYMid meet">
<metadata>
Created by potrace 1.11, written by Peter Selinger 2001-2013
</metadata>
<g transform="translate(0.000000,64.000000) scale(0.100000,-0.100000)"
fill="#000000" stroke="none">
<path d="M12 353 c0 -10 -3 -30 -7 -45 -6 -24 -4 -28 13 -28 11 0 27 7 35 15
13 13 16 13 21 -1 3 -9 15 -14 27 -12 29 4 37 58 9 58 -10 0 -22 -6 -26 -12
-6 -9 -10 -5 -14 12 -7 31 -59 43 -58 13z m29 -36 c-8 -8 -11 -7 -11 4 0 20
13 34 18 19 3 -7 -1 -17 -7 -23z m69 -1 c0 -3 -4 -8 -10 -11 -5 -3 -10 -1 -10
4 0 6 5 11 10 11 6 0 10 -2 10 -4z"/>
<path d="M239 368 c0 -2 -2 -12 -3 -23 -2 -11 -6 -30 -10 -42 -8 -24 5 -30 39
-17 20 8 37 48 29 69 -5 12 -51 23 -55 13z m20 -62 c-9 -8 -10 -7 -5 7 3 10 7
24 7 30 1 7 3 4 6 -7 3 -10 -1 -23 -8 -30z"/>
<path d="M140 312 c0 -15 -5 -33 -12 -40 -9 -9 -8 -12 5 -12 9 0 27 17 41 38
25 40 26 53 1 32 -10 -8 -15 -9 -15 -1 0 6 -4 11 -10 11 -5 0 -10 -13 -10 -28z"/>
<path d="M300 314 c-12 -31 -12 -34 -1 -34 5 0 13 9 16 20 3 11 10 20 15 20 4
0 10 -9 13 -20 7 -27 21 -25 35 5 13 28 9 32 -36 33 -26 1 -35 -4 -42 -24z"/>
<path d="M400 325 c-16 -19 -9 -37 17 -41 16 -3 22 3 25 26 4 23 1 30 -13 30
-9 0 -22 -7 -29 -15z"/>
<path d="M456 317 c-8 -31 -7 -37 4 -37 6 0 10 6 10 14 0 8 5 18 11 22 8 4 9
0 4 -15 -4 -12 -2 -21 4 -21 6 0 11 6 11 14 0 8 4 17 9 21 6 3 9 -7 8 -21 -1
-15 4 -29 12 -32 9 -3 11 1 6 17 -7 23 4 28 23 9 14 -14 18 -11 27 25 6 21 4
27 -8 27 -9 0 -20 -7 -25 -16 -8 -14 -10 -14 -15 -2 -3 9 -20 15 -40 16 -28 1
-36 -3 -41 -21z"/>
<path d="M599 314 c-5 -15 -7 -30 -3 -33 4 -3 9 0 11 7 3 7 11 19 19 26 18 19
18 26 -1 26 -9 0 -20 -12 -26 -26z"/>
</g>
</svg>
